<svg id="Layer_1" enable-background="new 0 0 512 512" height="512" viewBox="0 0 512 512" width="512" xmlns="http://www.w3.org/2000/svg"><path d="m72.494 184.842c0-3.822 3.097-6.919 6.919-6.919h207.263c3.82 0 6.919 3.097 6.919 6.919s-3.099 6.919-6.919 6.919h-207.263c-3.822-.001-6.919-3.097-6.919-6.919zm113.179 51.429h-106.26c-3.822 0-6.919 3.097-6.919 6.919s3.097 6.919 6.919 6.919h106.261c3.822 0 6.919-3.097 6.919-6.919s-3.098-6.919-6.92-6.919zm0 58.347h-106.26c-3.822 0-6.919 3.099-6.919 6.919s3.097 6.919 6.919 6.919h106.261c3.822 0 6.919-3.099 6.919-6.919s-3.098-6.919-6.92-6.919zm0 58.347h-106.26c-3.822 0-6.919 3.099-6.919 6.919s3.097 6.919 6.919 6.919h106.261c3.822 0 6.919-3.099 6.919-6.919-.001-3.82-3.098-6.919-6.92-6.919zm323.208-4.901c-1.86 4.059-5.18 7.144-9.347 8.694l-21.567 8.013c-1.883.698-3.842 1.045-5.797 1.045-2.369 0-4.734-.509-6.959-1.532-1.57-.72-2.939-1.715-4.185-2.835-.531 4.883-2.372 9.562-5.585 13.083-4.41 4.833-10.356 6.721-16.703 5.486-.158 3.189-1 6.396-2.608 9.396-4.73 8.838-14.581 13.203-23.959 11.378-.176 3.167-1.045 6.279-2.581 9.153-.888 1.661-2.027 3.119-3.27 4.474v19.751c0 24.352-19.41 44.208-43.567 45.026-5.371 18.904-22.75 32.804-43.353 32.804h-272.715c-24.867 0-45.099-20.23-45.099-45.099v-389.077c0-24.355 19.42-44.212 43.581-45.022 5.446-19.051 23.101-32.802 43.336-32.802h272.717c24.869 0 45.099 20.232 45.099 45.099v215.314c.924.38 1.828.759 2.712 1.129 6.873 2.874 11.212 4.446 14.646 4.305-.753-3.495-.424-7.121 1.097-10.438 1.86-4.056 5.18-7.144 9.347-8.691l21.572-8.011c4.171-1.543 8.703-1.376 12.757.486 4.054 1.86 7.14 5.18 8.689 9.347l32.23 86.768c1.544 4.17 1.373 8.702-.488 12.756zm-105.193-73.757c-13.03-5.451-26.501-11.091-45.241 1.843-3.973 2.747-8.056 6.217-12.142 10.342-2.459 2.482-4.982 4.964-7.446 7.383-5.013 4.923-10.95 10.757-14.149 14.734 9.455 9.856 19.311 6.856 34.838 1.013 12.649-4.761 26.955-10.158 39.63-.504 3.482 1.986 8.613 4.518 14.036 7.198 15.438 7.624 28.437 14.347 36.811 21.148l-21.67-58.342c-1.644.367-3.288.595-4.925.595-6.818 0-13.535-2.811-19.742-5.41zm-343.866-241.582h259.578c24.869 0 45.099 20.232 45.099 45.099v179.577c10.489-3.876 19.797-3.526 27.982-1.619v-210.683c0-17.236-14.022-31.261-31.261-31.261h-272.717c-12.624 0-23.815 7.716-28.681 18.887zm160.608 79.592 37.32-25.16c2.34-1.577 5.394-1.577 7.736 0l33.369 22.493v-63.087h-78.425zm130.231 354.584v-16.926c-1.449.355-2.911.556-4.365.556-3.383 0-6.712-.91-9.671-2.495-4.856-2.595-8.905-7.104-11.072-12.36-.14.045-.279.09-.423.131-5.541 1.676-11.392 1.108-16.477-1.613-3.779-1.887-6.883-4.995-8.896-8.901-.968.455-1.973.842-3.014 1.158-5.54 1.676-11.396 1.108-16.477-1.613-4.847-2.419-8.577-6.847-10.338-12.383-.941-2.964-1.243-6.072-.923-9.09-3.153-.131-6.324-.955-9.288-2.541-4.842-2.414-8.572-6.842-10.333-12.378-1.8-5.653-1.268-11.815 1.457-16.91l2.488-4.651c-1.438.397-2.901.651-4.382.651-1.718 0-3.446-.27-5.126-.815l-21.894-7.059c-8.752-2.824-13.577-12.248-10.754-21l28.421-88.092c1.365-4.232 4.306-7.682 8.279-9.718 3.973-2.032 8.493-2.399 12.723-1.038l21.901 7.065c5.617 1.814 9.582 6.354 10.979 11.681 5.079.178 10.147-.824 15.787-1.945 11.813-2.347 24.999-4.948 41.401 3.152v-181.943c0-17.236-14.022-31.261-31.261-31.261h-6.707v76.097c0 2.559-1.41 4.908-3.671 6.108-2.261 1.203-4.991 1.056-7.117-.372l-40.288-27.158-41.23 27.795c-1.142.77-2.489 1.182-3.867 1.182h-3.009c-3.822 0-6.919-3.097-6.919-6.919v-76.733h-159.91c-17.236 0-31.261 14.025-31.261 31.261v389.077c0 17.239 14.025 31.261 31.261 31.261h272.715c17.239 0 31.261-14.022 31.261-31.261zm20.472-52.279c1.055 4.397.177 8.766-1.148 12.388l.703.365c4.302 2.216 6.509-1.126 7.072-2.203.632-1.206 2.089-5.151-2.648-8.413zm-6.847 25.022-.538-.281c-.056.096-.115.186-.171.281zm-22.309-21.864-.009.014-3.568 6.671c-2.275 4.257 1.234 9.491 4.752 11.369 1.315.712 5.342 2.856 9.013-4.004l2.594-4.851c.002-.004.003-.009.005-.014 4.905-9.18 3.486-10.5-1.739-13.297-2.243-1.203-4.649-.64-5.878-.207-2.238.792-4.121 2.368-5.17 4.319zm-11.392-24.599c-3.779-2.018-8.527-.59-10.559 3.207-.003.006-.008.011-.012.018l-8.038 15.027v.005c-.973 1.82-1.144 4.077-.473 6.185.36 1.126 1.288 3.176 3.504 4.284 1.991 1.063 4.104 1.266 6.108.658s3.649-1.946 4.626-3.77l.468-.874c.004-.008.01-.014.014-.021l3.525-6.591c.006-.012.009-.025.015-.036h.005l4.022-7.522c2.029-3.8.592-8.539-3.205-10.57zm-20.203-12.978c-.608-2.009-1.946-3.649-3.77-4.626-3.788-2.032-8.531-.59-10.563 3.203-.003.006-.008.011-.012.017l-7.042 13.167-5.405 10.108c-.973 1.824-1.144 4.077-.473 6.189.356 1.126 1.288 3.18 3.504 4.288 3.973 2.122 8.703.671 10.734-3.113l2.423-4.531c.003-.006.008-.011.012-.017l8.026-15.006c.003-.005.004-.012.007-.017l1.986-3.721c.979-1.828 1.181-3.936.573-5.941zm-27.964-22.626c-1.739-.82-3.716-.968-5.599-.396-2.009.608-3.649 1.946-4.626 3.77l-2.959 5.532c-.001.001-.002.003-.003.004l-6.191 11.577c-.973 1.82-1.144 4.077-.473 6.189.36 1.122 1.288 3.176 3.509 4.284 3.95 2.122 8.689.685 10.721-3.104.007-.012.017-.022.023-.035l7.031-13.145v-.005s0 0 0-.004l2.108-3.932c.788-1.478 3.176-5.942-3.541-10.735zm-2.342-93.95c.473-1.464-.365-3.104-1.833-3.577l-21.899-7.065c-.302-.099-.588-.137-.851-.137-.577 0-1.043.182-1.315.322-.394.203-1.106.687-1.414 1.649l-28.423 88.092c-.473 1.468.367 3.108 1.833 3.581l21.899 7.063c.966.315 1.773.018 2.167-.18.394-.203 1.106-.689 1.414-1.649l4.942-15.319c.176-.616.328-1.236.526-1.848.069-.212.176-.397.263-.597zm112.405 170.545v-12.684c-.051.006-.102.026-.153.031.122 3.532-.707 7.027-2.315 10.086-3.473 6.622-9.838 10.32-16.622 10.32-2.952 0-5.984-.711-8.892-2.179v25.518c15.703-1.647 27.982-14.962 27.982-31.092zm53.293-81.478c-4.739-7.203-25.167-17.297-38.689-23.973-6.095-3.009-11.356-5.608-15.234-7.856-.288-.167-.563-.356-.824-.559-6.324-5-14.23-2.401-26.599 2.266-15.468 5.824-36.658 13.784-53.797-9.257-1.446-1.95-1.766-4.513-.847-6.757 2.302-5.613 8.865-12.23 19.383-22.558 2.414-2.374 4.892-4.806 7.302-7.239 1.968-1.991 3.95-3.856 5.928-5.595-11.198-4.802-20.252-3-30.437-.977-6.409 1.273-12.986 2.555-20.142 2.122l-21.964 68.073c-.487 1.737-.89 3.489-1.133 5.251 1.284-.694 2.653-1.266 4.086-1.698 5.545-1.694 11.396-1.108 16.482 1.613.315.167.613.36.896.572 5.712 4.009 9.216 9.243 10.284 14.842 4.225-.486 8.64.257 12.676 2.414 5.081 2.716 8.806 7.27 10.482 12.811.243.797.437 1.604.586 2.414 4.293-.554 8.797.185 12.901 2.374 5.032 2.694 8.537 7.112 10.243 12.13 1.98-2.847 5.796-3.833 8.928-2.166l22.952 12.324c.394.127.784.279 1.16.482.009 0 .013.004.023.009l5.73 3.068c1.946 1.036 4.185 1.248 6.324.608 2.131-.649 3.878-2.072 4.914-4.013 1.041-1.946 1.257-4.189.613-6.324-.649-2.126-2.068-3.869-3.995-4.91l-.018-.009c-.236-.126-.437-.289-.652-.438l-26.51-14.175c-3.369-1.797-4.64-5.991-2.838-9.36 1.797-3.374 6.009-4.649 9.36-2.838l27.203 14.545c.233.125.431.286.644.433l11.266 6.027c4.126 2.194 9.27.64 11.473-3.482 2.126-3.977.719-8.894-3.098-11.211l-37.357-20.275c-3.356-1.824-4.604-6.022-2.779-9.383 1.824-3.356 6.022-4.59 9.383-2.779l36.556 19.841c.112.053.229.082.34.141l11.36 6.077c4.559 2.428 6.248.604 6.883-.095 2.407-2.64 3.16-8.555.552-12.51zm50.621-12.567-32.23-86.77c-.351-.95-1.081-1.403-1.486-1.588-.257-.117-.685-.266-1.203-.266-.297 0-.622.047-.964.173l-21.572 8.013c-.95.351-1.405 1.081-1.59 1.486s-.441 1.225-.09 2.171l32.23 86.77c.351.95 1.081 1.405 1.486 1.59.401.18 1.225.437 2.171.09l21.567-8.013c.95-.351 1.405-1.081 1.59-1.486.186-.404.442-1.224.091-2.17z"/></svg>