<svg id="Layer_1" enable-background="new 0 0 500 500" viewBox="0 0 500 500" xmlns="http://www.w3.org/2000/svg"><path clip-rule="evenodd" d="m295.232 207.019c2.014 2.934 1.24 6.943-1.653 8.947-2.945 2.009-6.974 1.255-8.988-1.684-2.789-4.148-8.058-8.001-10.744-7.872-2.789.103-4.288 1.622-7.232 5.315-3.346 4.187-7.963 9.593-16.324 8.906-10.83-.891-13.917-8.327-16.117-13.116-5.712-12.431-21.403-6.672-24.02 6.297-.723 3.487-4.133 5.749-7.594 5.047-3.513-.697-5.734-4.086-5.062-7.583 2.531-12.594 12.243-21.98 24.227-23.364 10.331-1.204 19.578 4.267 24.175 14.262 2.031 4.478 2.462 5.357 5.476 5.62 4.714.412 7.481-13.494 22.006-14.257 9.578-.504 18.615 8.703 21.85 13.482zm-112.095-45.21c0-3.559 2.893-6.441 6.457-6.441h44.735c3.564 0 6.405 2.883 6.405 6.441 0 3.554-2.841 6.437-6.405 6.437h-44.735c-3.565 0-6.457-2.883-6.457-6.437zm0-34.935c0-3.559 2.893-6.436 6.457-6.436h120.257c3.564 0 6.457 2.877 6.457 6.436 0 3.554-2.893 6.442-6.457 6.442h-120.257c-3.565-.001-6.457-2.888-6.457-6.442zm0-34.941c0-3.554 2.893-6.437 6.457-6.437h120.257c3.564 0 6.457 2.882 6.457 6.437 0 3.564-2.893 6.442-6.457 6.442h-120.257c-3.565 0-6.457-2.878-6.457-6.442zm264.586 281.427-25.88.026c-.775 0-1.343-.62-1.343-1.343l-.103-119.281c0-.761.586-1.338 1.343-1.338l25.88-.026c.751-.001 1.343.578 1.343 1.338l.103 119.281c0 .733-.568 1.343-1.343 1.343zm-92.052 19.361-1.395 1.519c-2.996 3.28-8.162 3.482-11.416.46l-1.033-.945c-2.635-2.412-6.664-2.252-9.092.367-2.428 2.609-2.273 6.685.362 9.092 3.254 3.027 3.461 8.151.465 11.432-1.998 2.182-3.54 3.951-7.025 4.096-2.17.093-4.236-.661-5.837-2.123l-9.04-8.342s0 0 0-.01c-2.583-2.412-6.664-2.247-9.092.372-2.428 2.609-2.273 6.69.362 9.102 3.254 3.022 3.461 8.141.465 11.416-1.986 2.17-3.49 3.97-7.025 4.107-2.118.078-4.236-.666-5.786-2.128l-7.852-7.258c-2.634-2.402-6.715-2.242-9.143.367-3.021 3.291-1.328 8.115.413 9.123 1.55 1.462 2.48 3.445 2.531 5.599.129 3.606-1.445 5.07-3.513 7.325-3.003 3.276-8.141 3.469-11.416.465l-2.686-2.485c5.372-8.156 4.804-19.253-2.066-26.815-3.667-4.065-8.678-6.555-14.102-7.067 0-.356.052-.713.052-1.074.31-5.858-1.705-11.463-5.631-15.786-3.616-3.936-8.369-6.405-13.637-7.046 1.589-12.539-7.781-23.906-20.611-24.542.258-5.6-1.601-11.313-5.682-15.776-8.11-8.947-22.006-9.619-30.943-1.493l-16.272 14.769c-2.015 1.792-3.616 3.905-4.804 6.225l-53.362-.052.103-106.403 49.952.046c3.812.096 9.679-1.531 13.431-3.156 28.98-12.517 54.653-6.813 84.821 19.185-16.53 15.321-30.219 28.303-44.735 43.149-3.328 3.41-1.894 9.128 2.531 10.615 3.203 1.064 6.457 2.309 9.918 3.631 18.545 7.077 41.635 15.869 60.18-2.118 4.752-4.634 9.918-9.474 15.91-15.011l71.235 65.749c3.296 3.013 3.461 8.144.465 11.419zm-130.176 53.217c3.358 3.694 9.04 3.967 12.759.615l8.42-7.676c3.719-3.347 3.978-9.076.62-12.77-3.311-3.647-9.069-3.938-12.759-.615l-8.42 7.681c-3.743 3.381-3.927 9.22-.62 12.765zm-21.851-21.97c3.322 3.676 9.078 3.931 12.759.609l10.59-9.634c3.719-3.337 3.978-9.066.62-12.759-3.144-3.489-8.768-3.926-11.933-1.348l-12.088 10.972c-2.995 3.415-3.047 8.761.052 12.16zm-17.873-16.974c5.02.267 6.978-2.98 9.866-5.435v.041l10.641-9.634-.052-.047c.413-.351.775-.677 1.188-1.002 4.194-3.532 4.572-9.352 1.085-13.183-3.358-3.688-9.04-3.967-12.76-.615l-15.6 14.185c-5.995 5.426-2.332 15.334 5.632 15.69zm-27.12-38.025c-3.668 3.352-3.926 9.076-.62 12.769 3.358 3.683 9.092 3.957 12.759.62l16.272-14.779c3.719-3.347 3.978-9.071.62-12.759-3.354-3.711-9.077-3.932-12.759-.62zm-79.655 3.074c-.052.723-.62 1.343-1.343 1.343l-25.932-.026c-.765-.001-1.343-.573-1.343-1.343l.103-119.281c0-.76.592-1.339 1.343-1.338l25.932.026c.683 0 1.343.623 1.343 1.338zm8.627-269.505c0-21.389 11.783-39.094 25.88-39.094 14.151 0 25.88 17.708 25.88 39.094zm63.899-39.094h-12.242c8.513 10.559 13.017 23.66 13.017 38.681v141.313c18.855-7.686 36.935-8.59 55.118-2.707 13.947 4.515 27.585 12.852 42.617 26.061 3.1-2.526 6.096-5.016 9.04-7.454 13.534-11.359 25.26-21.174 42.204-22.765 10.693-.987 22.833 1.503 37.038 7.645 2.996 1.296 5.734 1.958 8.885 2.123v-61.663l-5.631 5.605c-.775.764-1.705 1.322-2.738 1.622l-31.097 9.097c-4.775 1.436-9.407-3.067-7.955-7.986l9.092-31.077c.31-1.033.826-1.978 1.601-2.738l36.728-36.697v-15.952c0-23.369-11.881-43.108-25.88-43.108zm262.883 10.052-93.654 93.644-5.321 18.193 18.183-5.331 93.654-93.633zm21.799-21.799c.775-.801 2.118-.79 2.944 0l9.918 9.923c.775.801.775 2.149 0 2.945l-12.708 12.692-12.862-12.863zm-78.932 313.961 50.314-.046-.103-106.403-58.683.051c-5.527 0-10.486-1.018-15.601-3.208-12.139-5.264-22.212-7.438-30.736-6.648-12.966 1.209-22.264 9.009-35.127 19.81-4.236 3.513-8.575 7.154-13.431 10.905-15.91 14.676-28.979 26.954-42.255 40.22.31.103.568.207.827.31 20.508 7.816 34.817 12.093 46.646.661 5.941-5.806 12.501-11.917 20.508-19.258 2.48-2.268 6.251-2.257 8.73.016zm100.421-122.98c-2.711-2.711-6.269-4.165-10.073-4.164l-25.932.026c-5.334.003-10.241 3.053-12.656 7.79l-48.971.041v-74.577l98.097-98.128c5.837-5.827 5.837-15.316 0-21.148l-9.918-9.929c-5.837-5.837-15.29-5.827-21.128 0l-67.051 67.035v-3.074c0-31.397-17.047-55.991-38.743-55.991h-207.815c-10.744 0-20.714 5.651-28.101 15.905-6.87 9.608-10.642 22.275-10.642 35.659v6.855c0 3.554 2.893 6.442 6.457 6.442h58.166v130.95l-48.971-.041c-2.415-4.737-7.322-7.787-12.656-7.79l-25.932-.026c-7.878-.004-14.254 6.388-14.257 14.211l-.103 119.286c-.003 7.789 6.372 14.223 14.205 14.227l25.984.026c5.476 0 10.28-3.167 12.656-7.769l52.742.041c1.397 10.827 10.491 18.799 21.231 19.02-.251 13.13 10.911 23.541 24.227 22.207.874 11.192 10.312 20.022 21.747 20.022 0 19.206 22.695 28.955 36.625 16.308l2.944-2.671 3.048 2.795c8.474 7.791 21.619 7.363 29.599-1.199 3.015-3.234 4.983-5.558 6.251-10.181 7.935 2.952 16.976.844 22.729-5.429 2.912-3.174 4.755-5.344 6.044-9.65 8.007 3.642 17.822 1.948 24.124-4.861l1.395-1.519c3.564-3.885 5.424-8.761 5.527-13.663 5.579-.062 11.106-2.325 15.187-6.741l1.395-1.519c5.75-6.219 7.231-15.286 3.668-22.931l40.396-.031c2.325 4.603 7.129 7.769 12.656 7.769l25.932-.026c7.852-.005 14.206-6.39 14.206-14.227l-.103-119.286c-.002-3.783-1.5-7.353-4.186-10.044z" fill-rule="evenodd"/></svg>