<svg id="Capa_1" enable-background="new 0 0 512 512" height="512" viewBox="0 0 512 512" width="512" xmlns="http://www.w3.org/2000/svg"><g><path d="m488.027 218.894h-49.648v-31.681h49.648c2.575 0 4.97-1.321 6.344-3.499 1.373-2.177 1.534-4.908.425-7.231-3.595-7.534-8.6-14.167-14.875-19.716-3.104-2.743-7.844-2.452-10.587.651s-2.452 7.843.651 10.587c1.496 1.323 2.897 2.727 4.199 4.208h-43.306c-4.143 0-7.5 3.358-7.5 7.5v46.681c0 4.142 3.357 7.5 7.5 7.5h43.279c-8.77 9.933-21.565 15.926-35.134 15.926-12.783 0-25.002-5.264-33.809-14.481-2.584-14.471-16.045-26.309-31.329-26.213h-19.002v-24.6h36.517c2.74 0 5.262-1.494 6.578-3.897 8.224-15.014 23.951-24.341 41.045-24.341 1.051 0 2.112.035 3.154.104 4.138.275 7.706-2.854 7.979-6.987.274-4.133-2.854-7.706-6.987-7.98-1.37-.091-2.766-.137-4.146-.137-21.057 0-40.541 10.712-51.878 28.238h-32.262v-5.7c0-18.117-14.74-32.857-32.857-32.857-10.198 0-19.326 4.671-25.357 11.985-6.031-7.314-15.159-11.985-25.357-11.985s-19.326 4.671-25.357 11.985c-6.031-7.314-15.159-11.985-25.357-11.985-13.882 0-25.772 8.658-30.577 20.854-5.567-4.332-12.553-6.922-20.137-6.922-15.275 0-28.149 10.479-31.812 24.625h-13.221c-.924-1.427-1.907-2.816-2.941-4.158-2.529-3.281-7.239-3.889-10.52-1.36s-3.889 7.239-1.359 10.519c1.483 1.923 2.825 3.977 3.989 6.102 1.316 2.403 3.838 3.897 6.578 3.897h16.429v37.056h-16.429c-2.74 0-5.262 1.494-6.578 3.897-8.224 15.014-23.951 24.341-41.045 24.341-13.568 0-26.364-5.993-35.134-15.926h43.279c4.143 0 7.5-3.358 7.5-7.5v-46.681c0-4.142-3.357-7.5-7.5-7.5h-43.278c8.771-9.933 21.564-15.925 35.134-15.925 3.779 0 7.536.451 11.165 1.339 4.022.987 8.084-1.478 9.069-5.501.984-4.023-1.478-8.083-5.501-9.068-4.796-1.174-9.753-1.77-14.733-1.77-23.679 0-45.57 13.815-55.771 35.195-1.109 2.324-.948 5.054.426 7.231 1.373 2.178 3.768 3.499 6.343 3.499h49.648v31.681h-49.649c-2.575 0-4.97 1.321-6.343 3.499-1.374 2.177-1.535 4.908-.426 7.231 10.201 21.38 32.094 35.196 55.771 35.196 21.057 0 40.541-10.712 51.878-28.238h12.505c2.253 15.938 15.977 28.238 32.526 28.238 8.181 0 15.667-3.012 21.424-7.977 5.435 10.668 16.52 17.996 29.29 17.996 8.065 0 15.456-2.926 21.181-7.766 5.344 10.927 16.573 18.473 29.534 18.473 11.088 0 21.067-5.459 27.067-14.217 5.466 3.347 16.314 3.831 23.58 3.51l-39.089 25.261c-13.676 8.838-21.84 23.835-21.84 40.118 0 4.142 3.357 7.5 7.5 7.5s7.5-3.358 7.5-7.5c0-11.17 5.601-21.458 14.98-27.52l60.442-39.061c2.793-1.805 4.063-5.232 3.123-8.421s-3.868-5.378-7.193-5.378h-34.256c-9.847 0-17.857-8.011-17.857-17.857.088-8.985 7.305-17.628 17.857-17.857h60.758c7.643 0 14.302 5.171 16.194 12.576l9.406 36.801c2.136 8.358.115 17.306-5.404 23.934l-52.461 62.991c-13.517 15.269-27.969 34.161-27.095 56.083v87.991c0 4.142 3.357 7.5 7.5 7.5s7.5-3.358 7.5-7.5v-87.989c-.996-18.278 13.163-34.127 23.665-46.537l52.416-62.938c8.592-10.316 11.736-24.24 8.412-37.248l-2.988-11.692c8.585 4.366 18.162 6.723 27.992 6.723 23.678 0 45.57-13.815 55.771-35.196 1.109-2.324.948-5.054-.426-7.231-1.37-2.177-3.764-3.498-6.34-3.498zm-318.142 30.926c-9.847 0-17.857-8.011-17.857-17.857v-54.205c0-9.846 8.011-17.857 17.857-17.857s17.856 8.011 17.856 17.857v54.205c0 9.846-8.011 17.857-17.856 17.857zm50.714 10.019c-9.847 0-17.857-8.011-17.857-17.857v-78.157c0-9.846 8.011-17.857 17.857-17.857s17.857 8.011 17.857 17.857v78.157c0 9.847-8.011 17.857-17.857 17.857zm50.714 10.707c-9.847 0-17.857-8.011-17.857-17.857v-88.864c0-9.846 8.011-17.857 17.857-17.857s17.856 8.011 17.856 17.857v55.707c-5.512 5.879-8.898 13.775-8.898 22.45 0 7.349 2.426 14.142 6.519 19.622-3.13 5.466-8.95 8.942-15.477 8.942zm32.857-60.169v-46.552c0-9.846 8.011-17.857 17.857-17.857s17.857 8.011 17.857 17.857v45.3h-26.756c-3.105 0-6.108.443-8.958 1.252z"/><path d="m152.027 345.131v-60.972c0-4.142-3.357-7.5-7.5-7.5s-7.5 3.358-7.5 7.5v60.972c0 14.678 5.1 29.033 14.359 40.421 7.092 8.723 10.998 19.717 10.998 30.958v87.99c0 4.142 3.357 7.5 7.5 7.5s7.5-3.358 7.5-7.5v-87.989c0-14.678-5.1-29.033-14.359-40.421-7.091-8.723-10.998-19.717-10.998-30.959z"/><path d="m256 51.763c4.143 0 7.5-3.358 7.5-7.5v-36.763c0-4.142-3.357-7.5-7.5-7.5s-7.5 3.358-7.5 7.5v36.763c0 4.142 3.357 7.5 7.5 7.5z"/><path d="m304.309 65.916c1.253.804 2.654 1.187 4.04 1.187 2.47 0 4.889-1.22 6.321-3.454l9.71-15.148c2.235-3.487 1.22-8.126-2.268-10.361-3.485-2.236-8.125-1.221-10.361 2.267l-9.71 15.148c-2.235 3.487-1.22 8.126 2.268 10.361z"/><path d="m344.751 109.583c1.013 0 2.041-.206 3.026-.642l16.459-7.271c3.789-1.673 5.504-6.102 3.83-9.891-1.674-3.79-6.103-5.505-9.891-3.83l-16.459 7.271c-3.789 1.673-5.504 6.102-3.83 9.891 1.239 2.804 3.985 4.472 6.865 4.472z"/><path d="m197.33 63.649c1.433 2.234 3.852 3.454 6.321 3.454 1.386 0 2.787-.384 4.04-1.187 3.487-2.235 4.503-6.874 2.268-10.361l-9.71-15.148c-2.236-3.488-6.875-4.501-10.361-2.267-3.487 2.235-4.503 6.874-2.268 10.361z"/><path d="m147.764 101.671 16.459 7.271c.985.436 2.014.642 3.026.642 2.879 0 5.626-1.668 6.864-4.472 1.674-3.789-.041-8.217-3.83-9.891l-16.459-7.271c-3.785-1.672-8.217.041-9.891 3.83-1.673 3.789.042 8.218 3.831 9.891z"/></g></svg>