<svg xmlns="http://www.w3.org/2000/svg" xmlns:xlink="http://www.w3.org/1999/xlink" xmlns:serif="http://www.serif.com/" width="100%" height="100%" viewBox="0 0 1784 590" xml:space="preserve" style="fill-rule:evenodd;clip-rule:evenodd;stroke-miterlimit:10;">    <g transform="matrix(1,0,0,1,-71.2622,-245.095)">        <g>            <path d="M100.1,609.1L117.6,648.4L117.6,692L125.2,692L125.2,672.7L133.6,672.7L133.6,608.9L137.4,608.9L137.4,598L143.2,598L143.2,593L157.7,577.6L159.3,577.6L173.8,593L173.8,598L179.6,598L179.6,608.8L183.4,608.8L183.4,672.6L199.6,672.6L199.6,614.6L203.9,614.2L203.9,606.8L206.5,604.2L209.1,606.8L209.1,609.3L213.6,609.3L213.6,606.5L217.4,606.5L217.4,603.8L221,603.8L221,587.4L223.6,584.7L226.2,587.4L226.2,603.8L229.8,603.8L229.8,606.5L233.6,606.5L233.6,609.3L238.1,609.3L238.1,606.8L240.8,604.2L243.4,606.8L243.4,614.2L247.7,614.6L247.7,672.6L257.3,672.6L257.3,691.9L265.5,691.9L265.5,521L268.4,521L268.4,514.8L270.9,514.8L270.9,508.9L273,508.9L273,495L303.8,495L303.8,508.8L305.9,508.8L305.9,514.7L308.4,514.7L308.4,520.9L311.3,520.9L311.3,709.7L322,709.7L322,693.1C322,692.9 322.3,691.1 332.7,691.1L335.9,691.1L335.9,577L335.2,576.7C326.3,572.3 320.5,562.7 320.5,552.2C320.5,537.4 331.9,525.3 345.9,525.3C359.9,525.3 371.3,537.4 371.3,552.2C371.3,562.7 365.5,572.3 356.6,576.7L355.9,577L355.9,672.9L357.2,672.8C358.3,672.7 359.6,672.7 360.9,672.7L367.9,672.7L367.9,606.6C367.9,602.9 368.6,600.9 369.3,600.9L388.7,600.9L389,600.7C389.9,600.1 391.1,599.8 392.2,599.8C393.4,599.8 394.5,600.1 395.5,600.8L395.8,601L415,601C415.7,601 416.4,603 416.4,606.7L416.4,692L437.9,691.9C442.8,672.8 444.9,652.5 443.9,631C443.4,620.1 441.4,609.6 438.6,599.2C433,578 425.1,557.7 415.3,538.3C409.8,527.4 404.7,516.3 398.9,505.6C388.5,486.1 377.6,467 366.2,448.1C353.8,427.6 341.5,407 329.3,386.4C319.2,369.3 309.1,352.1 299.5,334.7C291.7,320.6 284.2,306.3 277.2,291.8C270.2,277.3 263.9,262.4 258.9,247C258.7,246.4 259.2,245 258,245.1C257,245.2 257.1,246.5 256.8,247.3C253.4,257.6 249.5,267.6 245.1,277.5C232.8,305.5 218.1,332.2 202.8,358.6C177.7,401.9 150.9,444.1 126.5,487.9C110.3,516.9 95.2,546.5 83.9,578C78.2,593.9 73.4,610.2 71.9,627.2C71.3,634.4 71.1,641.6 71.4,648.7L82.5,648C88.5,634.9 94.3,622 100.1,609.1Z" style="fill:url(#_Radial1);fill-rule:nonzero;"></path>        </g>        <path d="M142.5,792.3C176.1,820.2 214.8,833.8 255.7,834.2C262.8,833.7 267.9,834.1 273,833.6C288.6,831.9 303.9,828.7 318.8,823.4C346,813.6 369.9,798.2 390,776.8C413.7,751.6 429.7,723.3 437.9,691.7L416.4,691.8L416.4,606.5C416.4,602.8 415.7,600.8 415,600.8L395.6,600.8L395.3,600.6C394.3,600 393.2,599.6 392,599.6C390.8,599.6 389.7,599.9 388.8,600.5L388.5,600.7L369,600.7C368.3,600.7 367.6,602.7 367.6,606.4L367.6,672.5L360.6,672.5C359.3,672.5 358,672.6 356.9,672.6L355.6,672.7L355.6,577L356.3,576.7C365.2,572.3 371,562.7 371,552.2C371,537.4 359.6,525.3 345.6,525.3C331.6,525.3 320.2,537.4 320.2,552.2C320.2,562.7 326,572.3 334.9,576.7L335.6,577L335.6,691.2L332.4,691.2C322,691.2 321.7,693 321.7,693.2L321.7,709.8L310.9,709.8L310.9,521L308,521L308,514.8L305.5,514.8L305.5,508.9L303.4,508.9L303.4,495L273,495L273,508.8L270.9,508.8L270.9,514.7L268.4,514.7L268.4,520.9L265.5,520.9L265.5,691.8L257.3,691.8L257.3,672.5L247.7,672.5L247.7,614.5L243.4,614.1L243.4,606.7L240.8,604.1L238.1,606.7L238.1,609.2L233.6,609.2L233.6,606.4L230,606.4L230,603.7L226.4,603.7L226.4,587.3L223.8,584.6L221.2,587.3L221.2,603.7L217.6,603.7L217.6,606.4L213.8,606.4L213.8,609.2L209.3,609.2L209.3,606.7L206.7,604.1L204.1,606.7L204.1,614.1L199.8,614.5L199.8,672.5L183.6,672.5L183.6,608.7L179.8,608.7L179.8,598L174,598L174,593L159.5,577.6L157.9,577.6L143.2,593L143.2,598L137.4,598L137.4,608.8L133.6,608.8L133.6,672.6L125.2,672.6L125.2,691.9L117.6,691.9L117.6,648.3L100.1,609C94.3,621.9 88.5,634.8 82.7,647.7L71.6,648.4C71.9,656.6 72.9,664.7 74.3,672.8C82.9,721.6 105.5,761.6 142.5,792.3Z" style="fill:url(#_Linear2);fill-rule:nonzero;"></path>        <g>            <path d="M624,651.1L552.7,651.1L552.7,812.3L575.1,812.3L575.1,760.3L624,760.3C640.7,760.3 654.8,754.4 664.8,743.1C673.6,733.2 678.4,719.9 678.4,705.7C678.4,678.6 659.7,651.1 624,651.1ZM575.1,672.7L624,672.7C646.1,672.7 656.1,689.9 656.1,705.8C656.1,721.7 646.1,738.9 624,738.9L575.1,738.9L575.1,672.7Z" style="fill:rgb(0,173,238);fill-rule:nonzero;stroke:rgb(0,173,238);stroke-width:1.14px;"></path>            <path d="M743.7,651.1L721.2,651.1L721.2,812.3L828.3,812.3L828.3,790.5L743.7,790.5L743.7,651.1Z" style="fill:rgb(0,173,238);fill-rule:nonzero;stroke:rgb(0,173,238);stroke-width:1.14px;"></path>            <path d="M967.4,750C967.4,779.5 946.2,793 926.6,793C915.9,793 905.9,789.2 898.6,782.4C890.3,774.7 885.9,763.5 885.9,750.1L885.9,651.3L863.7,651.3L863.7,750C863.7,769.8 870.5,786.5 883.4,798.3C894.8,808.7 910.2,814.5 926.6,814.5C943,814.5 958.4,808.8 969.9,798.3C982.8,786.5 989.7,769.8 989.7,750L989.7,651.2L967.5,651.2L967.5,750L967.4,750Z" style="fill:rgb(0,173,238);fill-rule:nonzero;stroke:rgb(0,173,238);stroke-width:1.14px;"></path>            <path d="M1122.8,734.2L1068.2,651.1L1046.1,651.1L1046.1,812.3L1068.5,812.3L1068.5,691.4L1118.2,766.8L1127.9,766.8L1177.1,691.5L1177.1,812.3L1199.3,812.3L1199.3,651.1L1176.8,651.1L1122.8,734.2Z" style="fill:rgb(0,173,238);fill-rule:nonzero;stroke:rgb(0,173,238);stroke-width:1.14px;"></path>            <path d="M1365,729.4C1375.5,722.2 1381.7,710.8 1381.7,697.5C1381.7,682.5 1375.7,670.2 1364.3,661.9C1354.7,654.9 1341.4,651.1 1326.9,651.1L1259.8,651.1L1259.8,812.3L1326.9,812.3C1365,812.3 1386.9,796 1386.9,767.6C1386.8,751.3 1378.6,737.3 1365,729.4ZM1328.4,741C1336.8,741 1364.4,742.9 1364.6,767.3C1364.6,782.5 1351.9,790.2 1326.9,790.2L1282.3,790.2L1282.3,741L1328.4,741ZM1328.4,719.2L1282.3,719.2L1282.3,671.8L1326.9,671.8C1342.1,671.8 1359.9,678.5 1359.9,697.5C1359.9,711.9 1349.3,719.2 1328.4,719.2Z" style="fill:rgb(0,173,238);fill-rule:nonzero;stroke:rgb(0,173,238);stroke-width:1.14px;"></path>            <rect x="1444.4" y="651.1" width="22.2" height="161.2" style="fill:rgb(0,173,238);stroke:rgb(0,173,238);stroke-width:1.14px;"></rect>            <path d="M1638.1,765.6L1545,651.1L1532,651.1L1532,812.3L1554.5,812.3L1554.5,698L1647.8,812.3L1660.3,812.3L1660.3,651.1L1638.1,651.1L1638.1,765.6Z" style="fill:rgb(0,173,238);fill-rule:nonzero;stroke:rgb(0,173,238);stroke-width:1.14px;"></path>            <path d="M1774.5,743.8L1826.9,743.8L1826.9,778C1815.9,787.3 1801.7,792.4 1786.6,792.4C1741.6,792.4 1725.7,759.8 1725.7,731.9C1725.6,714.2 1731.7,698.2 1742.8,687C1753.6,676.1 1768.8,670.4 1786.6,670.4C1803.2,670.4 1819.8,677 1831.1,688.2L1835.1,692.2L1849.1,676.9L1845.4,673.2C1829.6,657.7 1808.8,649.1 1786.6,649.1C1762.7,649.1 1741.3,657.3 1726.4,672.3C1711.4,687.4 1703.5,708.1 1703.6,732.3C1703.6,773.2 1729.2,814.4 1786.6,814.4C1809.6,814.4 1830,805.7 1847.1,788.6L1848.7,787L1848.7,723.1L1774.5,723.1L1774.5,743.8Z" style="fill:rgb(0,173,238);fill-rule:nonzero;stroke:rgb(0,173,238);stroke-width:1.14px;"></path>        </g>        <g>            <rect x="553.1" y="342.8" width="45.5" height="246.5" style="fill:rgb(185,212,49);fill-rule:nonzero;"></rect>            <path d="M674.6,438.2L674.6,589.3L629,589.3L629,337.7L788,493.9L788,342.8L833.5,342.8L833.5,594.4L674.6,438.2Z" style="fill:rgb(185,212,49);fill-rule:nonzero;"></path>            <path d="M932.4,386L860.1,386L860.1,342.8L1050.1,342.8L1050.1,386L977.9,386L977.9,589.3L932.4,589.3L932.4,386Z" style="fill:rgb(185,212,49);fill-rule:nonzero;"></path>            <path d="M1182.8,337.7C1256.6,337.7 1315.1,393.8 1315.1,466.1C1315.1,538.3 1256.6,594.5 1182.8,594.5C1109,594.5 1050.5,538.4 1050.5,466.1C1050.5,393.8 1109,337.7 1182.8,337.7ZM1182.8,551.2C1227.2,551.2 1267.2,513.9 1267.2,466C1267.2,418.1 1227.2,380.8 1182.8,380.8C1138.4,380.8 1098.4,418.1 1098.4,466C1098.4,513.9 1138.4,551.2 1182.8,551.2Z" style="fill:rgb(185,212,49);fill-rule:nonzero;"></path>            <path d="M1306.7,342.8L1354.6,342.8L1410.3,488.8L1466.4,356.1L1523.3,488.8L1578.3,342.8L1626.6,342.8L1523.4,594.4L1466.5,451.5L1407.2,594.4L1306.7,342.8Z" style="fill:rgb(185,212,49);fill-rule:nonzero;"></path>            <path d="M1690,438.2L1690,589.3L1644.5,589.3L1644.5,337.7L1803.5,493.9L1803.5,342.8L1849,342.8L1849,594.4L1690,438.2Z" style="fill:rgb(185,212,49);fill-rule:nonzero;"></path>        </g>    </g>    <defs>        <radialGradient id="_Radial1" cx="0" cy="0" r="1" gradientUnits="userSpaceOnUse" gradientTransform="matrix(1193.29,0,0,1193.29,274.812,798.715)"><stop offset="0" style="stop-color:white;stop-opacity:1"></stop><stop offset="0.03" style="stop-color:rgb(234,247,252);stop-opacity:1"></stop><stop offset="0.09" style="stop-color:rgb(189,229,246);stop-opacity:1"></stop><stop offset="0.16" style="stop-color:rgb(149,213,241);stop-opacity:1"></stop><stop offset="0.24" style="stop-color:rgb(116,200,236);stop-opacity:1"></stop><stop offset="0.31" style="stop-color:rgb(89,189,232);stop-opacity:1"></stop><stop offset="0.4" style="stop-color:rgb(68,181,230);stop-opacity:1"></stop><stop offset="0.49" style="stop-color:rgb(53,175,228);stop-opacity:1"></stop><stop offset="0.61" style="stop-color:rgb(44,172,226);stop-opacity:1"></stop><stop offset="0.78" style="stop-color:rgb(41,171,226);stop-opacity:1"></stop><stop offset="1" style="stop-color:rgb(41,171,226);stop-opacity:1"></stop></radialGradient>        <linearGradient id="_Linear2" x1="0" y1="0" x2="1" y2="0" gradientUnits="userSpaceOnUse" gradientTransform="matrix(2.07714e-14,339.222,-339.222,2.07714e-14,254.7,495.036)"><stop offset="0" style="stop-color:rgb(0,138,203);stop-opacity:1"></stop><stop offset="0.38" style="stop-color:rgb(0,140,203);stop-opacity:1"></stop><stop offset="0.6" style="stop-color:rgb(0,149,201);stop-opacity:1"></stop><stop offset="0.78" style="stop-color:rgb(1,163,199);stop-opacity:1"></stop><stop offset="0.93" style="stop-color:rgb(2,182,197);stop-opacity:1"></stop><stop offset="1" style="stop-color:rgb(2,193,195);stop-opacity:1"></stop></linearGradient>    </defs></svg>